<?xml version="1.0" standalone="no"?>
<!DOCTYPE svg PUBLIC "-//W3C//DTD SVG 1.1//EN" "http://www.w3.org/Graphics/SVG/1.1/DTD/svg11.dtd" >
<svg xmlns="http://www.w3.org/2000/svg">
<metadata>
Created by FontForge 20120731 at Sat Jun 24 11:56:07 2017
 By admin
</metadata>
<defs>
<font id="iconfont" horiz-adv-x="1024" >
  <font-face 
    font-family="iconfont"
    font-weight="500"
    font-stretch="normal"
    units-per-em="1024"
    panose-1="2 0 6 3 0 0 0 0 0 0"
    ascent="896"
    descent="-128"
    x-height="792"
    bbox="-17 -204 1024.36 896"
    underline-thickness="0"
    underline-position="0"
    unicode-range="U+0078-E9A4"
  />
<missing-glyph 
 />
    <glyph glyph-name=".notdef" 
 />
    <glyph glyph-name=".notdef" 
 />
    <glyph glyph-name=".null" horiz-adv-x="0" 
 />
    <glyph glyph-name="nonmarkingreturn" horiz-adv-x="341" 
 />
    <glyph glyph-name="x" unicode="x" horiz-adv-x="1001" 
d="M281 543q-27 -1 -53 -1h-83q-18 0 -36.5 -6t-32.5 -18.5t-23 -32t-9 -45.5v-76h912v41q0 16 -0.5 30t-0.5 18q0 13 -5 29t-17 29.5t-31.5 22.5t-49.5 9h-133v-97h-438v97zM955 310v-52q0 -23 0.5 -52t0.5 -58t-10.5 -47.5t-26 -30t-33 -16t-31.5 -4.5q-14 -1 -29.5 -0.5
t-29.5 0.5h-32l-45 128h-439l-44 -128h-29h-34q-20 0 -45 1q-25 0 -41 9.5t-25.5 23t-13.5 29.5t-4 30v167h911zM163 247q-12 0 -21 -8.5t-9 -21.5t9 -21.5t21 -8.5q13 0 22 8.5t9 21.5t-9 21.5t-22 8.5zM316 123q-8 -26 -14 -48q-5 -19 -10.5 -37t-7.5 -25t-3 -15t1 -14.5
t9.5 -10.5t21.5 -4h37h67h81h80h64h36q23 0 34 12t2 38q-5 13 -9.5 30.5t-9.5 34.5q-5 19 -11 39h-368zM336 498v228q0 11 2.5 23t10 21.5t20.5 15.5t34 6h188q31 0 51.5 -14.5t20.5 -52.5v-227h-327z" />
    <glyph glyph-name="icon" unicode="&#xe605;" 
d="M828 426q0 87 -43 160.5t-116.5 116.5t-160.5 43t-160.5 -43t-116 -116.5t-42.5 -160.5q0 -95 52 -174h-1l240 -383v0q8 -18 28 -18t29 18v0l239 383v0q52 79 52 174v0zM508 572q61 0 103.5 -42.5t42.5 -103t-42.5 -103t-103 -42.5t-103.5 42.5t-43 103t43 103t103 42.5
v0zM508 572z" />
    <glyph glyph-name="fenxiang1" unicode="&#xe631;" 
d="M859 786q-64 0 -110 -44.5t-46 -107.5q0 -14 2 -28l-419 -204q-47 50 -116 50q-65 0 -111 -44.5t-46 -107.5t46 -107.5t111 -44.5q67 0 114 48l248 -160q-17 -33 -17 -70q0 -63 45.5 -107.5t110.5 -44.5t111 44.5t46 107.5t-46 107.5t-111 44.5q-67 0 -114 -48l-248 160
q17 33 17 70q0 36 -16 68l409 198q20 -38 57.5 -61t82.5 -23q65 0 111 44.5t46 107.5t-46 107.5t-111 44.5v0zM671 58q42 0 69.5 -26.5t27.5 -65.5q0 -41 -28.5 -67t-68.5 -26q-39 0 -67.5 26.5t-28.5 66.5t28 66t68 26v0zM170 209q-41 0 -68.5 26t-27.5 65t27 65t69 26
q41 0 68 -26t27 -65q0 -37 -28.5 -64t-66.5 -27v0zM859 542q-40 0 -68 26.5t-28 65.5q0 38 25.5 65.5t70.5 27.5q43 0 70 -27t27 -66q0 -37 -28.5 -64.5t-68.5 -27.5v0zM859 542z" />
    <glyph glyph-name="iconziti50" unicode="&#xe63f;" 
d="M512 -127q-104 0 -198.5 40.5t-163 109t-109 163t-40.5 198t40.5 198t109 163t163 109t198.5 40.5t198.5 -40.5t163 -109t109 -163t40.5 -198t-40.5 -198t-109 -163t-163 -109t-198.5 -40.5zM512 836q-92 0 -175.5 -36t-144.5 -96.5t-96.5 -144.5t-35.5 -175.5
t35.5 -175.5t96.5 -144.5t144.5 -96.5t175.5 -36t176 36t144.5 96.5t96.5 144.5t36 175.5t-36 175.5t-96.5 144.5t-144.5 96.5t-176 36z" />
    <glyph glyph-name="llmainpageback" unicode="&#xe600;" 
d="M481 596zM476 637zM369 297l381 380q10 10 10 24t-10 24l-12 11q-10 10 -23.5 10t-23.5 -10l-417 -415q-10 -10 -10 -24t10 -24l417 -415q10 -10 23.5 -10t23.5 10l12 12q10 10 10 23.5t-10 23.5z" />
    <glyph glyph-name="lose" unicode="&#xe61d;" 
d="M460 344q4 0 12.5 0.5t11.5 0.5q94 55 206 55q17 0 53 -4q53 23 82.5 53t29.5 64v56q0 46 -53 84.5t-144 61t-198.5 22.5t-198.5 -22.5t-143.5 -61t-52.5 -84.5v-56q0 -46 52.5 -85t143.5 -61.5t199 -22.5zM476 169h486v-156h-486v156zM378 -63q-6 9 -11 18
q-134 11 -218 50t-84 97v-95q0 -37 35 -70q47 -44 144 -71.5t216 -27.5q4 0 11.5 0.5t10.5 0.5q-64 39 -104 98v0zM346 183q22 59 68 106q-99 4 -177.5 23t-125 52t-46.5 75v-95q0 -56 79 -100.5t202 -60.5zM340 15q-12 42 -12 76q0 5 4 36q-120 14 -193.5 51.5t-73.5 91.5
v-95q0 -55 77 -99t198 -61v0z" />
    <glyph glyph-name="dingdan" unicode="&#xe637;" 
d="M831 767h-96v64h-86q-21 29 -57.5 46t-79.5 17t-79.5 -17t-57.5 -46h-86v-64h-96q-52 0 -89.5 -37.5t-37.5 -90.5v-637q0 -52 37.5 -89.5t89.5 -37.5h638q52 0 89.5 37.5t37.5 89.5v637q0 53 -37.5 90.5t-89.5 37.5zM353 767h71q0 26 25.5 45t62.5 19t62.5 -19t25.5 -45
h71v-128h-318v128zM894 2q0 -26 -18.5 -44.5t-44.5 -18.5h-638q-26 0 -44.5 18.5t-18.5 44.5v637q0 27 18.5 45.5t44.5 18.5h96v-127h446v127h96q26 0 44.5 -18.5t18.5 -45.5v-637zM735 130h-446q-13 0 -22.5 -9.5t-9.5 -22.5t9.5 -22.5t22.5 -9.5h446q13 0 22.5 9.5
t9.5 22.5t-9.5 22.5t-22.5 9.5zM735 448h-446q-13 0 -22.5 -9t-9.5 -22.5t9.5 -22.5t22.5 -9h446q13 0 22.5 9t9.5 22.5t-9.5 22.5t-22.5 9zM735 289h-446q-13 0 -22.5 -9.5t-9.5 -22.5t9.5 -22.5t22.5 -9.5h446q13 0 22.5 9.5t9.5 22.5t-9.5 22.5t-22.5 9.5z" />
    <glyph glyph-name="you" unicode="&#xe6da;" 
d="M642 307q14 -12 0 -24l-309 -271q-7 -6 -7.5 -14.5t5 -15.5t14.5 -7.5t16 5.5l309 271q21 18 21 44t-20 44l-310 281q-7 6 -15.5 5.5t-14.5 -7t-5.5 -15.5t6.5 -15z" />
    <glyph glyph-name="dingwei" unicode="&#xe607;" 
d="M515 -167q-21 0 -79.5 72t-118.5 167.5t-107 198t-47 154.5q0 97 47 178.5t128.5 129t177 47.5t177 -47.5t128.5 -129t47 -178.5q0 -51 -47 -153.5t-107.5 -198t-119 -168t-79.5 -72.5zM515.5 740q-129.5 0 -221 -92t-91.5 -221q0 -47 41.5 -138.5t95 -178t105 -151.5
t70.5 -65t70.5 65.5t105 152t95 178t41.5 137.5q0 129 -91 221t-220.5 92zM515.5 277q-60.5 0 -104 43.5t-43.5 104.5t43.5 104.5t104 43.5t103.5 -43.5t43 -104.5t-43 -104.5t-103.5 -43.5zM515.5 521q-38.5 0 -66 -27.5t-27.5 -66.5t27.5 -66.5t66 -27.5t66 27.5
t27.5 66.5t-27.5 66.5t-66 27.5z" />
    <glyph glyph-name="jian" unicode="&#xe68d;" 
d="M828 288q0 -7 -5 -12t-12 -5h-598q-7 0 -12 5t-5 12v24q0 7 5 12t12 5h598q7 0 12 -5t5 -12v-24z" />
    <glyph glyph-name="select" unicode="&#xe635;" 
d="M512 804q-137 0 -253 -67.5t-183.5 -183.5t-67.5 -253t67.5 -253t183.5 -183.5t253 -67.5t253 67.5t183.5 183.5t67.5 253t-67.5 253t-183.5 183.5t-253 67.5zM453 312l-1 -1l-3.5 1t-5.5 1q2 0 6 -0.5zM432 313q-2 0 -5.5 -1t-4.5 -1l-1 1q1 0 5 0.5t6 0.5zM798 389
l-272 -272v1q-1 -1 -2.5 -3t-2.5 -3q-35 -35 -84 -35t-83 35q-1 1 -3 3.5l-2 2.5l-1 -1l-137 138q-14 14 -14 33.5t14 33.5t33.5 14t33.5 -14l104 -104l2 2q6 -11 9 -14q18 -18 44 -18t45 18q3 3 9 14l2 -2l56 55v0l182 182q14 14 33.5 14t33 -13.5t13.5 -33.5t-13 -33z" />
    <glyph glyph-name="daifukuan" unicode="&#xe63e;" 
d="M1001 574q0 41 -28.5 70t-69.5 29h-780q-41 0 -70 -29t-29 -70v-552q0 -41 29 -70t70 -29h780q41 0 69.5 29t28.5 70v288v1.5v0.5v1v1v260v0zM87 569q0 17 12 29t29 12h770q17 0 28.5 -12t11.5 -29v-22h-851v22v0zM87 485h851v-58h-851v58v0zM938 27q0 -17 -11.5 -29
t-28.5 -12h-770q-17 0 -29 12t-12 29v338h851v-51l0.5 -1l0.5 -1l-0.5 -1l-0.5 -1v-283v0zM165 154q-8 0 -14 -6t-6 -15v-63q0 -9 6 -15t14 -6h64q9 0 15 6t6 15v63q0 9 -6 15t-15 6h-64v0zM165 154z" />
    <glyph glyph-name="gouwu" unicode="&#xe629;" 
d="M62 39zM893 -67l-27 494q-2 25 -19 42t-43 17h-118v69q0 74 -51.5 125.5t-124.5 51.5t-125 -52q-52 -51 -52 -125v-69h-118q-25 0 -42 -17t-19 -42l-27 -494v-2q0 -25 17.5 -43t42.5 -18h645q26 0 43.5 18t17.5 43v0v2zM396 555q0 47 33.5 80.5t80.5 33.5t80.5 -33.5
t33.5 -80.5v-69h-228v69zM189 -67l28 491h116v-59q-11 -12 -11 -29q0 -23 18 -35q10 -13 24.5 -13t24.5 13q19 12 19 35q0 17 -12 29v59h228v-59q-12 -12 -12 -29q0 -23 19 -35q9 -13 24 -13t24 13q19 12 19 35q0 17 -12 29v59h117l28 -491h-642zM957 39z" />
    <glyph glyph-name="jia1" unicode="&#xe679;" 
d="M156 315q-6 0 -11 -4t-5 -11t5 -11.5t11 -4.5h712q7 0 11.5 4.5t4.5 11t-4.5 11t-11.5 4.5h-712zM497 -56q0 -7 4.5 -11.5t11 -4.5t11 4.5t4.5 11.5v712q0 6 -4.5 11t-11.5 5t-11 -5t-4 -11v-712z" />
    <glyph glyph-name="shouji3" unicode="&#xe623;" 
d="M776 795h-528q-27 0 -46.5 -19.5t-19.5 -46.5v-858q0 -27 19.5 -46.5t46.5 -19.5h528q27 0 46.5 19.5t19.5 46.5v858q0 27 -19.5 46.5t-46.5 19.5zM248 745h528q7 0 11.5 -4.5t4.5 -11.5v-668h-560v668q0 7 4.5 11.5t11.5 4.5zM776 -145h-528q-7 0 -11.5 4.5t-4.5 11.5
v140h561v-140q-1 -7 -5.5 -11.5t-11.5 -4.5zM512 -63zM463 -62.5q0 20.5 14.5 35t34.5 14.5t34.5 -14.5t14.5 -35t-14.5 -35t-34.5 -14.5t-34.5 14.5t-14.5 35z" />
    <glyph glyph-name="xuanzhong1" unicode="&#xe63d;" 
d="M512 896q-104 0 -199 -40.5t-163.5 -109t-109 -163.5t-40.5 -199t40.5 -199t109 -163.5t163.5 -109t199 -40.5t199 40.5t163.5 109t109 163.5t40.5 199t-40.5 199t-109 163.5t-163.5 109t-199 40.5zM858 576l-419 -419q-9 -9 -21.5 -9t-21.5 9l-230 231q-9 8 -9 21
t9 21.5t21.5 8.5t21.5 -9l209 -209l397 398q9 9 21.5 9t21.5 -9t9 -21.5t-9 -21.5z" />
    <glyph glyph-name="star" unicode="&#xe633;" 
d="M1020 494q-6 19 -22 32t-37 17l-266 39l-116 241q-9 19 -27.5 30t-39.5 11t-39.5 -11t-27.5 -30l-116 -241l-266 -39q-21 -4 -37 -17t-22 -32q-14 -42 17 -73l195 -195l-45 -270q-3 -21 5 -40t25 -31q20 -13 43 -13q19 0 36 9l232 125l232 -125q17 -9 36 -9q23 0 43 13
q17 12 25 31t5 40l-45 270l195 195q31 31 17 73zM755 276q-26 -26 -20 -62l45 -270l-232 125q-17 9 -36 9t-36 -9l-232 -125l45 270q6 36 -20 62l-195 195l266 40q39 6 56 41l116 240l116 -240q17 -35 56 -41l266 -40z" />
    <glyph glyph-name="25" unicode="&#xe61a;" 
d="M514 843q-19 0 -35.5 -10.5t-24.5 -27.5l-83 -179q-21 -45 -70 -52l-191 -29q-18 -3 -32.5 -15t-20.5 -30q-13 -39 16 -68l144 -148q31 -33 24 -78l-33 -206q-7 -41 27 -66q17 -12 38 -12q17 0 32 8l165 89q44 24 88 0l165 -89q15 -8 32 -8q21 0 39 12q34 24 27 66
l-33 206q-8 45 24 78l144 148q28 29 15 68q-6 18 -20 30t-33 15l-191 29q-48 7 -69 52l-84 179q-8 17 -24 27.5t-36 10.5v0v0v0zM514 843z" />
    <glyph glyph-name="jia" unicode="&#xe620;" 
d="M567 -9v784q0 24 -16.5 40.5t-39.5 16.5t-39.5 -16.5t-16.5 -40.5v-784q0 -23 16.5 -39.5t39.5 -16.5t39.5 16.5t16.5 39.5zM903 439h-784q-23 0 -39.5 -16t-16.5 -39.5t16.5 -40t39.5 -16.5h784q23 0 39.5 16.5t16.5 40t-16.5 39.5t-39.5 16z" />
    <glyph glyph-name="tupian" unicode="&#xe62b;" 
d="M959 63h-893v638h893v-638zM98 95h829v574h-829v-574zM649 398h-2q-36 0 -61.5 25.5t-25.5 60.5v2q0 36 25.5 61.5t61.5 25.5h2q36 0 61 -25.5t25 -61.5v-2q0 -35 -25 -60.5t-61 -25.5zM647 541q-23 0 -39 -16t-16 -39v-2q0 -22 16 -38t39 -16h2q22 0 38.5 16t16.5 38v2
q0 23 -16.5 39t-38.5 16h-2zM91 160l-23 23l275 279l22 -22zM605 195l-265 264l23 23l264 -265zM619 181l-23 23l168 171l23 -23zM926 201l-167 168l22 22l167 -167z" />
    <glyph glyph-name="commision" unicode="&#xe6b0;" 
d="M512 891q-103 0 -197 -40.5t-161.5 -108t-108 -161.5t-40.5 -197t40.5 -197t108 -161.5t161.5 -108t197 -40.5t197 40.5t161.5 108t108 161.5t40.5 197t-40.5 197t-108 161.5t-161.5 108t-197 40.5zM512 -41q-115 0 -213 57t-155 155t-57 213t57 213t155 155t213 57
t213 -57t155 -155t57 -213t-57 -213t-155 -155t-213 -57zM653 662q-129 -242 -135 -258h-2q-20 51 -133 258h-85l158 -272h-129v-60h151v-83h-151v-61h151v-119h76v119h146v61h-146v83h146v60h-126l160 272h-81z" />
    <glyph glyph-name="fenxiang" unicode="&#xe613;" 
d="M754 344q-58 0 -106.5 -30.5t-73.5 -80.5l-200 87q14 31 14 64q0 44 -24 83l332 171q37 -50 98 -50q51 0 86.5 35.5t35.5 86.5t-35.5 86.5t-86 35.5t-86.5 -35.5t-36 -86.5q0 -17 6 -36l-339 -174q-48 47 -114 47q-68 0 -115.5 -47.5t-47.5 -115t47.5 -115t115.5 -47.5
q79 0 128 63l206 -90q-9 -30 -9 -55q0 -84 59.5 -143.5t144 -59.5t144 59.5t59.5 144t-59.5 144t-143.5 59.5zM794.5 791q33.5 0 57.5 -23.5t24 -57.5t-24 -57.5t-57.5 -23.5t-57.5 23.5t-24 57.5t24 57.5t57.5 23.5zM224.5 262q-50.5 0 -86 36t-35.5 86.5t35.5 86t86 35.5
t86.5 -35.5t36 -86t-36 -86.5t-86.5 -36zM753.5 -22q-67.5 0 -115 47.5t-47.5 115t47.5 115t115 47.5t115 -47.5t47.5 -115t-47.5 -115t-115 -47.5z" />
    <glyph glyph-name="book-copy-copy" unicode="&#xe601;" 
d="M235 -128h-252v920h252v-920zM192 745h-166v-85h166v85zM326 895h235v-1051h-235v1051zM526 855h-160v-82h160v82zM972 -3l-186 -60l-220 676l186 60zM731 628l-121 -39l20 -63l121 40z" />
    <glyph glyph-name="fenlei" unicode="&#xe652;" 
d="M512 -101v0q99 0 188.5 38.5t154.5 103.5t103.5 154.5t38.5 188.5t-38.5 188.5t-103.5 154.5t-154.5 103.5t-188.5 38.5t-188.5 -38.5t-154.5 -103.5t-103.5 -154.5t-38.5 -188.5t38.5 -188.5t103.5 -154.5t154.5 -103.5t188.5 -38.5v0zM512 -128q-139 0 -257 68.5
t-186.5 186.5t-68.5 257t68.5 257t186.5 186.5t257 68.5t257 -68.5t186.5 -186.5t68.5 -257t-68.5 -257t-186.5 -186.5t-257 -68.5zM359 600h-77q-5 0 -8.5 -4t-3.5 -9v-76q0 -6 3.5 -9.5t8.5 -3.5h77q5 0 8.5 3.5t3.5 9.5v76q0 5 -3.5 9t-8.5 4zM351 531q0 -5 -3.5 -9
t-9.5 -4h-35q-6 0 -9.5 4t-3.5 9v35q0 6 3.5 9.5t9.5 3.5h35q6 0 9.5 -3.5t3.5 -9.5v-35zM359 421h-77q-5 0 -8.5 -3.5t-3.5 -8.5v-77q0 -5 3.5 -8.5t8.5 -3.5h77q5 0 8.5 3.5t3.5 8.5v77q0 5 -3.5 8.5t-8.5 3.5zM351 353q0 -6 -3.5 -9.5t-9.5 -3.5h-35q-6 0 -9.5 3.5
t-3.5 9.5v35q0 6 3.5 9.5t9.5 3.5h35q6 0 9.5 -3.5t3.5 -9.5v-35zM359 243h-77q-5 0 -8.5 -3.5t-3.5 -8.5v-77q0 -5 3.5 -9t8.5 -4h77q5 0 8.5 4t3.5 9v77q0 5 -3.5 8.5t-8.5 3.5zM351 175q0 -6 -3.5 -9.5t-9.5 -3.5h-35q-6 0 -9.5 3.5t-3.5 9.5v35q0 5 3.5 9t9.5 4h35
q6 0 9.5 -4t3.5 -9v-35zM779 548.5q0 -5.5 -4 -9t-9 -3.5h-331q-5 0 -9 3.5t-4 9t4 9t9 3.5h331q5 0 9 -3.5t4 -9zM779 370.5q0 -5.5 -4 -9t-9 -3.5h-331q-5 0 -9 3.5t-4 9t4 9t9 3.5h331q5 0 9 -3.5t4 -9zM779 192.5q0 -5.5 -4 -9t-9 -3.5h-331q-5 0 -9 3.5t-4 9t4 9t9 3.5
h331q5 0 9 -3.5t4 -9z" />
    <glyph glyph-name="ren-copy" unicode="&#xe609;" 
d="M510 857q-118 0 -201.5 -83.5t-83.5 -201.5q0 -85 45 -154.5t119 -104.5q-136 -40 -223.5 -154.5t-87.5 -259.5q0 -9 7 -15.5t16 -6.5t16 6.5t7 15.5q0 105 51.5 194t140.5 141t194 52q118 0 202 83.5t84 202t-84 202t-202 83.5v0zM510 331q-99 0 -169.5 70.5t-70.5 170
t70.5 170t170 70.5t170 -70.5t70.5 -170t-70.5 -170t-170.5 -70.5v0zM510 331zM772 243q-7 5 -16.5 4t-15 -8.5t-4.5 -17t9 -14.5q72 -56 112 -136.5t40 -171.5q0 -9 6.5 -15.5t16 -6.5t16 6.5t6.5 15.5q0 102 -44.5 192t-125.5 152v0zM772 243z" />
    <glyph glyph-name="jiuxing" unicode="&#xe622;" 
d="M258 856h107v-181h-107v181zM394 574q-11 9 -18.5 26t-8.5 30l-2 12h-106q-4 -47 -29 -68q-18 -15 -29 -26t-23.5 -33t-12.5 -44v-536q0 -14 10 -24.5t25 -10.5h224q14 0 24.5 10.5t10.5 24.5v536q0 22 -12.5 44t-23.5 33t-29 26zM413 66h-202v315h202v-315zM808 -57h-67
q-9 0 -15.5 6.5t-6.5 15.5v274q68 7 113.5 58t45.5 119q0 9 -1 23l-15 203h-321l-17 -196q-3 -16 -3 -30q0 -67 44.5 -117.5t110.5 -58.5v-275q0 -9 -6.5 -15.5t-15.5 -6.5h-67q-9 0 -15 -6t-6 -15v-1q0 -9 6 -15.5t15 -6.5h221q9 0 15 6.5t6 15.5v1q0 9 -6 15t-15 6v0z
M570 424l18 176h223l18 -176h-259z" />
    <glyph glyph-name="mima" unicode="&#xe60f;" 
d="M809 -128h-603q-3 0 -7 0.5t-13.5 4t-18.5 10t-20 19t-19 29.5l-3 5v444l2 4q6 16 18 32q27 35 65 35h606q3 -1 7.5 -2t15 -6t20 -13t18.5 -23.5t14 -35.5v-2v-421v-2q-1 -3 -2 -7.5t-6.5 -15.5t-13.5 -20t-23 -19t-34 -15zM208 -82h595q34 11 42 38v412q-9 35 -34 40
h-601q-23 0 -38 -33v-424q16 -29 36 -33h-1h1v0zM509 -1h-1q-18 0 -36.5 12t-26.5 37l-1 3l-1 88q-35 31 -40 70q-5 40 25 76v1l1 1q4 4 11.5 10t28 15t41.5 9v0q44 0 81 -37l2 -2l1 -2q14 -22 17 -50q6 -52 -36 -86v-88v-1q-2 -18 -18 -36t-47 -20h-1v0zM490 59
q4 -8 11 -11q4 -2 7 -3q18 2 20 14v109l11 7q29 19 26 50q-2 14 -9 28q-30 29 -63 19q-17 -5 -30 -17q-16 -20 -14 -40q2 -11 10 -23t13 -16.5t7 -6.5l10 -7l1 -103v0zM779 503h-46v153l-13 39q-60 117 -166 136q-53 9 -93 -4h-1q-93 -27 -140 -102q-23 -35 -30 -69v-151
h-46v155v2q6 40 35 86q57 91 167 123q53 17 116 6q57 -10 104 -45q58 -42 97 -118v-1l16 -50v-160z" />
    <glyph glyph-name="zuanshi" unicode="&#xe61e;" 
d="M328 502l180 -619l192 619h-372zM328 502zM510 -120q0 -1 -1 -1v0q0 -2 -1 -2t-2 1l-221 624h-281l505 -632l509 632h-275zM510 -120zM507 -120q0 -2 2 -1l-1 4zM507 -120zM1018 545l-168 242h-284l180 -242h272zM1018 545zM451 787h-278l-169 -242h272zM451 787z
M693 545l-180 242h-9l-176 -242h365zM693 545z" />
    <glyph glyph-name="tubiao04" unicode="&#xe60c;" 
d="M720 319q-28 0 -48 20t-20 48.5t20 48.5t48 20t48 -20t20 -48.5t-20 -48.5t-48 -20zM720 418q-12 0 -19.5 -8t-7.5 -19q0 -10 8.5 -18.5t18.5 -8.5q12 0 20 8t8 19t-8 19t-20 8zM847 2h-4q-601 0 -659 3q-41 0 -61.5 26.5t-20.5 55.5v618q5 38 33 56.5t63 18.5h7h457h191
h4q36 -7 53.5 -30.5t17.5 -44.5l0.5 -102t1 -209.5t0.5 -206t-2 -110.5q-7 -38 -30 -56.5t-51 -18.5zM198 739q-51 0 -55 -38v-611q0 -6 2 -13.5t12 -17.5t27 -10q27 0 191 -0.5t317 -1.5t155 -1v-20v17q33 0 40 34v621q0 4 -1.5 10t-10 15.5t-22.5 12.5h-187h-461zM884 237
h-215h-3q-20 5 -40 14.5t-42 26t-36 42.5t-16 57q0 74 41 120q20 19 49 31t43 14t21 2h198q8 0 14.5 -6t6.5 -14t-6.5 -14.5t-14.5 -6.5h-198q-6 0 -15 -0.5t-31 -9t-36 -24.5q-31 -30 -31 -88q1 -22 11 -39.5t21.5 -27.5t27.5 -18t23.5 -10t15.5 -4h212q8 0 14.5 -6.5
t6.5 -14.5q0 -9 -5.5 -16.5t-15.5 -7.5z" />
    <glyph glyph-name="rihuayongpin" unicode="&#xe606;" 
d="M989 681q0 -29 -27.5 -54t-75 -44t-111.5 -29.5t-137.5 -10.5t-138 10.5t-112.5 29.5t-76 44t-28 54t27.5 54.5t75.5 44.5t112 30t138 11t138 -11t112 -30t75.5 -44.5t27.5 -54.5v0zM637 738q-44 0 -74.5 -15t-30.5 -36t30.5 -35.5t74.5 -14.5t75 14.5t31 35.5t-31 36
t-75 15v0zM284 588q33 -26 83 -47q43 -18 109.5 -32.5t159.5 -14.5q95 0 161.5 14.5t110.5 32.5q49 21 81 47v-546q0 -16 -19 -37.5t-60 -41.5t-105 -33.5t-153 -13.5q-90 0 -159 11.5t-115.5 30t-70.5 41t-24 43.5v295q0 114 1 251v0zM227 576h-210l92 -267l-92 -267h210
v534zM227 576z" />
    <glyph glyph-name="jiantoushang" unicode="&#xe603;" 
d="M512 768l-243 -323h203v-445h80v445h203z" />
    <glyph glyph-name="chong" unicode="&#xe9a4;" 
d="M937 47q9 24 14 54t8 65q-24 9 -47 18q-24 10 -47 20q-1 -21 -5 -47q-3 -25 -8 -58q-9 -52 -76 -52h-51q-69 -5 -63 59v233l130 3l60 -60l77 69q-66 59 -133 119q-66 59 -131 114l-67 -52q9 -9 21.5 -20t30.5 -28q37 -33 53 -54l-404 -10q92 77 219 205h429v95h-361
q-2 5 -3 15l-7 25q-9 27 -15 44.5t-7 27.5l-113 -12q3 -9 8 -26q6 -18 14 -41q8 -26 10 -33h-397v-95h308q-80 -90 -164 -157q-38 -38 -89 -60l49 -95q14 3 41 7q26 3 71 7h41q0 -130 -57 -187q-49 -60 -212 -112q3 -7 9 -15q5 -8 13 -19q14 -20 23 -33q10 -14 15 -24
q332 103 311 398l126 4v-263q-4 -120 123 -115h111q122 -5 142 86v0v0zM937 47z" />
    <glyph glyph-name="wallet" unicode="&#xe626;" 
d="M946 237h-217q-36 0 -61.5 26t-25.5 63t25.5 63t61.5 26h217q18 0 30.5 -13t12.5 -31v-90q0 -18 -12.5 -31t-30.5 -13zM729 371q-18 0 -30.5 -13t-12.5 -32t12.5 -32t30.5 -13t30.5 13t12.5 32t-12.5 32t-30.5 13zM599 326q0 -56 38 -95t92 -39h152v-90q0 -37 -25.5 -63
t-61.5 -26h-672q-36 0 -61.5 26t-25.5 63v537q0 37 25.5 63.5t61.5 26.5h672q36 0 61.5 -26.5t25.5 -63.5v-179h-152q-54 0 -92 -39t-38 -95zM816 661.5q0 9.5 -6.5 16t-15.5 6.5h-672q-9 0 -15.5 -6.5t-6.5 -16t6.5 -16t15.5 -6.5h672q9 0 15.5 6.5t6.5 16z" />
    <glyph glyph-name="xiala" unicode="&#xe6e1;" 
d="M512 192l256 256h-512z" />
    <glyph glyph-name="shouru" unicode="&#xe621;" 
d="M365 280q23 59 73 106q-106 4 -189.5 22.5t-133.5 51.5t-50 75v-94q0 -57 84 -101t216 -60zM486 441q5 0 14 0.5t12 0.5q100 55 220 55q18 0 56 -5q56 23 87.5 53.5t31.5 63.5v56q0 46 -56.5 84.5t-153.5 61t-211 22.5t-211 -22.5t-153.5 -61t-56.5 -84.5v-56
q0 -46 56.5 -84.5t153.5 -61t211 -22.5zM767 216v156h-132v-156h-193v-106h193v-155h132v155h193v106h-193zM387 52q-143 11 -232.5 50t-89.5 97v-95q0 -46 56.5 -84.5t153.5 -61t211 -22.5q4 0 12 0.5t11 0.5q-78 44 -122 115zM359 113q-13 41 -13 75q0 5 4 36
q-128 14 -206.5 51.5t-78.5 91.5v-95q0 -55 82 -99t212 -60z" />
    <glyph glyph-name="weixinzhifu" unicode="&#xe958;" 
d="M757 -61h-490q-83 0 -141.5 58.5t-58.5 141.5v490q0 83 58.5 141.5t141.5 58.5h490q83 0 141.5 -58.5t58.5 -141.5v-490q0 -83 -58.5 -141.5t-141.5 -58.5zM411 273l-74 215l103 -78l329 151q-43 53 -111 83.5t-146 30.5q-130 0 -221.5 -78t-91.5 -189q0 -66 36 -123.5
t97 -94.5l-26 -91l109 56q47 -13 97 -13q130 0 221.5 78t91.5 188q0 65 -35 123z" />
    <glyph glyph-name="sousuo_sousuo1" unicode="&#xe60b;" 
d="M873 66q10 -12 10 -27q0 -16 -11 -28q-11 -11 -27 -11h-1q-7 0 -13 2q-10 3 -16 11v-1l-212 213q-76 -54 -170 -54q-10 0 -20 1q-19 1 -36 6q-59 4 -121 53q-18 11 -40 35t-39 55q-31 51 -37 112v-9q-3 12 -3 42q0 4 0 3q0 27 5 52q11 70 54 126q11 20 41.5 45.5
t67.5 42.5l-10 -3q12 8 42 18q45 17 96 17q20 0 39 -3q50 -7 97 -31q76 -39 117 -111l-2 6q11 -13 27 -56q21 -57 18 -116q-3 -99 -67 -177l212 -213h-1zM685 457v13q0 47 -18 91q-21 54 -64 94q-7 6 0 0q-5 5 -10 9q-49 41 -111 53q-22 4 1 1q-25 3 -49 3q-14 0 -30 -1
q-2 0 -7 -1l-4 -1q-69 -11 -120 -55q-20 -12 -41.5 -42t-33.5 -66q-1 3 -3 -3q-11 -25 -13 -71q-3 -65 24 -119q32 -72 100 -111q0 -3 12.5 -9.5t35.5 -13.5t46 -9q1 -2 11.5 -3t28.5 0t36 4q46 8 86 32q7 2 28 19t38 38l1 -1q20 24 36 60l-16 -29q4 6 9 17q26 50 27 108v-7
z" />
    <glyph glyph-name="shouye_shouye" unicode="&#xe602;" 
d="M998 376l-486 456l-486 -454q-8 -7 -8 -17t6.5 -17t16.5 -7t17 6l454 424l454 -425q7 -6 16 -6q10 0 17 7t7 17t-8 16zM850 367q-10 0 -17 -7t-7 -17v-361h-188v251h-252v-251h-189v361q0 10 -6.5 17t-16.5 7t-17 -7t-7 -17v-408h283v251h157v-251h283v408q1 10 -6 17
t-17 7zM182 -27h218v240h211v-240h234v373h130l-463 439l-480 -433l148 -6zM596 753h-35v-226h275v1zM836 548v205h-218z" />
    <glyph glyph-name="qian" unicode="&#xe6e8;" 
d="M789 512q-31 32 -65 57q-7 5 -11 7q25 13 39.5 33.5t14.5 45.5q0 40 -33.5 67t-79.5 27q-21 0 -39 -7q-8 -3 -13 -6q-4 -3 -8 2q-8 12 -22 23q-28 24 -60 27q-33 -3 -60 -27q-14 -11 -22 -23q-4 -5 -8 -2q-5 3 -13 6q-18 7 -39 7q-46 0 -79.5 -27.5t-33.5 -66.5
q0 -25 14.5 -45.5t38.5 -33.5q-4 -2 -10 -7q-34 -25 -66 -57q-97 -100 -97 -211q0 -80 29.5 -143t80.5 -102t117.5 -59t143.5 -20h8q77 0 143.5 20t117.5 59t80.5 102t29.5 143q0 112 -98 211zM619 312h-77v-30h57q12 0 21 -9t9 -21.5t-9 -21t-21 -8.5h-57v-46q0 -12 -9 -21
t-21 -9t-21 9t-9 21v46h-60q-12 0 -21 8.5t-9 21t9 21.5t21 9h60v30h-77q-13 0 -21.5 8.5t-8.5 21t8.5 21.5t21.5 9h35l-56 55q-9 9 -9 21.5t9 21t21.5 8.5t20.5 -9l86 -85l86 85q9 9 21 9t21 -8.5t9 -21t-9 -21.5l-56 -56h36q12 0 21 -8.5t9 -21t-9 -21t-22 -8.5z" />
    <glyph glyph-name="zhifubao" unicode="&#xe640;" 
d="M896 245l-247 83q19 29 39 85q9 24 15 45.5t7 31.5l1 9l-160 1v55l194 1v39h-194v88h-94v-88h-181v-39l181 1v-58h-145v-31h298q-3 -25 -15 -55l-23 -58q-140 49 -214 49q-40 0 -75.5 -10.5t-64 -38t-32.5 -67.5q-6 -61 25 -98.5t88 -51.5q91 -22 194 28q25 13 53.5 36
t44 39t15.5 17l288 -140q-8 -49 -49.5 -83.5t-90.5 -34.5v0h-484v0q-59 0 -100.5 41.5t-41.5 100.5v0v484v0q0 59 41.5 100.5t100.5 41.5v0h484v0q59 0 100.5 -41.5t41.5 -100.5v0v-381zM536 293q-3 -4 -10 -11.5t-27.5 -26t-42 -32.5t-53 -26t-60.5 -12q-70 0 -98.5 26.5
t-28.5 62.5q0 75 111 82q40 3 92 -13t85 -33l32 -17v0z" />
    <glyph glyph-name="huanhuo" unicode="&#xe689;" 
d="M495 333h3l118 118q10 10 24.5 10t24.5 -10t10 -24t-10 -24l-71 -70h242q14 0 24 -10t10 -24t-10 -24t-24 -10h-341q-14 0 -24 10t-10 24t10 24t24 10zM461 159v3v0q0 14 10 24t24 10h341v0q14 0 24 -10t10 -24v-3q0 -14 -10 -24t-24 -10h-3l-118 -124q-10 -10 -24.5 -10
t-24.5 10.5t-10 25t10 25.5l71 73h-242q-14 0 -24 10t-10 24zM1024 -60q0 -28 -20 -48t-48 -20h-888q-26 0 -45.5 17.5t-21.5 43.5q-1 4 -1 7v0v69q0 14 10 24t24 10t24 -10t10 -24v-35q0 -14 10 -24t24 -10h820q14 0 24 10t10 24v512q0 15 -10 25t-24 10h-820v0
q-14 0 -24 -10t-10 -24.5t-10 -24.5t-24 -10t-24 10t-10 24v69q0 6 2 12v0q3 6 7 11q17 41 36.5 83.5t50.5 101.5t64.5 96t61.5 37h563q30 0 59 -18.5t52.5 -50t43.5 -65.5t36 -74t25.5 -65.5t16.5 -49.5q6 -8 6 -18q0 -11 -2 -18q2 -9 2 -16v-581zM761 828h-512
q-20 0 -45 -25.5t-48.5 -67.5t-40.5 -76t-32 -70h861q-12 36 -27.5 70t-39 76t-54 67.5t-62.5 25.5zM34 418h256q14 0 24 -10t10 -24t-10 -24t-24 -10h-256q-14 0 -24 10t-10 24t10 24t24 10zM34 145h51q14 0 24 -10t10 -24t-10 -24t-24 -10h-51q-14 0 -24 10t-10 24t10 24
t24 10zM34 282h154q14 0 24 -10t10 -24.5t-10 -24.5t-24 -10h-154q-14 0 -24 10t-10 24.5t10 24.5t24 10z" />
    <glyph glyph-name="sousuo_sousuo" unicode="&#xe604;" 
d="M1010 -40v0v0v0q14 -16 14 -35q0 -22 -15 -38q-15 -15 -37 -15h-1v0q-9 0 -17.5 3t-15.5 8l-6 5l-282 285q-102 -72 -228 -72q-12 0 -25 1t-26 3q-37 4 -84.5 21.5t-78.5 38.5q-80 51 -128 136q-23 39 -36 83t-16 90v24q0 34 5 68q5 30 20 70.5t31 67t44.5 58.5t53.5 51
q50 40 113 61q62 22 127 22q28 0 53 -3q67 -10 129 -42q26 -13 57.5 -37t50.5 -45q53 -56 81.5 -132.5t24.5 -155.5q-4 -131 -90 -236l283 -285h-1v0zM759 482v17q0 26 -7 61.5t-16 58.5q-15 41 -40 76t-59 63t-73 47q-27 12 -68 21t-72 9q-19 0 -38 -2q-5 0 -11 -1l-6 -1
q-31 -5 -70.5 -21t-65.5 -33q-26 -18 -54.5 -49t-44.5 -58q-42 -70 -46 -155.5t31 -159.5q13 -27 38 -60.5t49 -53.5q23 -20 60 -39.5t66 -27.5q73 -21 148 -8q39 7 75 22.5t68 39.5t57 54q26 30 43 65v0q14 27 24 66.5t12 68.5z" />
    <glyph glyph-name="tea" unicode="&#xe6f4;" 
d="M342 215q0 -12 9 -20.5t21.5 -8.5t21.5 8.5t9 20.5t-9 21t-21.5 9t-21.5 -9t-9 -21zM398 476q47 32 68.5 61.5t20.5 52.5t-12.5 45t-27.5 42.5t-27 40.5t-7 44t28 49q-37 -6 -57.5 -29t-23 -49t2.5 -49t14 -32q3 -3 15 -11.5t21 -16t17 -22t9 -30.5t-8.5 -41t-32.5 -55z
M535 476q57 39 83 75t24.5 64.5t-15.5 55t-33.5 52t-32.5 50.5t-8.5 54t33.5 59q-45 -7 -70 -35t-28 -59.5t3 -59.5t17 -39q4 -4 18.5 -14.5t25.5 -19.5t21.5 -27t11 -38t-11 -51t-38.5 -67zM981 295q-2 9 -7 18q-1 1 -1.5 2.5t-0.5 2.5q-5 9 -11 16v0.5v0.5q-5 6 -13 14
q-1 1 -2 1.5t-1 1.5q-8 7 -16 13v0q-9 5 -19 10l-2 2q-21 9 -44 13h-0.5h-1.5q-12 3 -24 3q-3 20 -18 36t-34 16h-397v-136h25q20 0 34.5 -14t14.5 -35v-82q0 -20 -14.5 -34.5t-34.5 -14.5h-82q-21 0 -35 14.5t-14 34.5v82q0 21 14 35t35 14h24v135h-176q-21 0 -37 -19
t-16 -42h-1q0 -7 1 -20v-1v-2q2 -30 6.5 -61.5t18 -83.5t34 -95.5t57.5 -87t84 -68.5h316q11 10 23 23t20 22t20.5 26t17 23t17.5 25t13 20q9 -2 22 -3q1 0 2.5 -0.5l1.5 -0.5q12 -1 23 0v0q10 0 23 2q1 0 2.5 0.5t2.5 0.5q13 2 23 5q70 20 107 75t20 113zM839 160
q-9 -2 -19 -3q-4 -1 -5 -1q-9 -1 -18 -1l-1.5 0.5l-1.5 0.5q-3 0 -9 1q49 88 53 178q29 -3 50 -19t29 -40q10 -35 -13 -69t-65 -47zM38 -58q0 -3 -0.5 -7t2 -14.5t7.5 -18t19 -14t34 -6.5h745q26 0 39.5 15t14.5 30l1 15h-862z" />
  </font>
</defs>
</svg>
